<svg width="160" height="46" fill="none" xmlns="http://www.w3.org/2000/svg"><g clip-path="url(#a)"><path d="M36.7229 33.864c-.6141 1.0807-1.3387 2.0976-2.164 3.0334l.0222.0221-.7664.7688c-3.4117 3.4314-7.9532 5.3227-12.7895 5.3227-4.8166 0-9.3459-1.8766-12.75267-5.2834-3.40677-3.4067-5.28332-7.936-5.28332-12.7526 0-.3562.00983-.7172.03193-1.0759.00246-.0491.00492-.0982.00983-.1498v-.0147c.00246-.0319.00491-.0663.00737-.0983v-.0172c.00491-.0736.01228-.1498.01965-.2235.00491-.0614.00982-.1252.01719-.1916.00983-.0958.01965-.194.02948-.2898.00736-.0565.01228-.1203.0221-.1818.00983-.0786.01965-.1694.03193-.2579l.02211-.1473c.00982-.0811.02456-.172.0393-.2604.00737-.0467.01719-.1007.02456-.1523.00737-.0442.01474-.0884.02456-.1326.00983-.0565.02211-.1228.03439-.1867.00982-.0565.02211-.1179.03439-.1793.01473-.0712.02701-.14.04421-.2137.10316-.4912.23088-.9849.3758-1.4663l.00491-.0123c.0172-.0639.03684-.1277.05895-.1891.01719-.0541.03439-.1081.05158-.1646.10316-.3144.21615-.6337.3365-.9407.0172-.0418.03439-.0885.05158-.1327.01965-.0466.03685-.0958.05895-.1474.02456-.0589.05158-.1252.0786-.1915.01965-.0492.04421-.1057.06878-.1597l.00982-.0246c.03439-.0736.06632-.1498.1007-.2235.02457-.0565.04913-.1105.07615-.1645.4544-.9825 1.00705-1.9306 1.63829-2.8198l.10316-.14c.07123-.0982.14246-.1965.21615-.2898.03439-.0442.07123-.0933.10807-.14.0786-.1032.15966-.2039.23826-.3021.04667-.0565.09333-.1179.14246-.1744.04421-.0541.09333-.1105.14246-.1695.04667-.0565.09825-.1154.14737-.1719.05649-.0639.11299-.1302.16948-.1941L5.44297 10.864C1.93059 14.7276 0 19.7211 0 24.9725 0 30.5899 2.18603 35.8683 6.15773 39.84c3.97167 3.9717 9.25007 6.1577 14.86747 6.1577 5.6346 0 10.9277-2.2007 14.9019-6.1946 1.1347-1.1396 2.1344-2.4021 2.9769-3.7604l-2.1811-2.1787Z" fill="#C8A35F"/><path d="M9.81255 36.1875c2.99415 2.9941 6.97805 4.6447 11.21265 4.6447.1326 0 .2652-.0025.3979-.0049.0663 0 .1301-.0025.1965-.0049h.0098c.0982-.005.194-.0099.2923-.0148.0786-.0049.1547-.0098.2333-.0147.0393-.0025.0737-.0049.1056-.0074l.0541-.0049c.0712-.0049.1424-.0123.2161-.0197.0639-.0049.1228-.0098.1842-.0171.0442-.005.0835-.0099.1204-.0123l.081-.0099c.0516-.0073.1032-.0122.1572-.0196.1965-.0246.3881-.0516.5773-.0835.054-.0098.1056-.0197.1572-.027l.0171-.0025c.0418-.0074.0836-.0147.1229-.0221l.0196-.0049c.054-.0098.1081-.0197.1621-.0319.1425-.0271.2825-.0565.42-.0885.0934-.0196.1867-.0442.28-.0663l.0123-.0024c.0246-.0049.0467-.0099.0712-.0172.0688-.0172.1302-.0344.1941-.0491.054-.0148.1056-.0271.1547-.0418.0442-.0123.0835-.0221.1204-.0344.0368-.0098.0663-.0172.0933-.027l.0221-.0074c.0393-.0098.0786-.0221.1179-.0344.0663-.0196.1228-.0368.1793-.0565.0467-.0147.086-.027.1302-.0393.1326-.0442.2653-.0884.3955-.1351.0368-.0122.0712-.0245.1056-.0368l.027-.0098c.0467-.0172.0884-.032.1277-.0467.0663-.0245.1228-.0467.1818-.0688.0491-.0196.0933-.0344.1351-.0515.081-.032.1547-.0614.2284-.0934l.2211-.0933c.0687-.0295.1375-.059.2014-.0884.0393-.0172.0712-.032.1056-.0467l.0319-.0147c.054-.0246.1081-.0516.1621-.0762.3341-.1596.6632-.3291.9801-.5109.0343-.0196.0663-.0393.1007-.0565.0736-.0417.1473-.0859.2186-.1277l.3635-.2235c.1596-.1032.3267-.2112.506-.3341.0491-.0343.0982-.0687.1473-.1031l.0197-.0148c.0368-.027.0737-.0515.1105-.0786l.0098-.0073c.0271-.0197.0541-.0393.0811-.059l.0098-.0073c.0467-.032.0909-.0664.1351-.1007.0516-.0369.1007-.0762.1474-.113.0344-.0271.0614-.0492.0909-.0713l.0343-.027c.0492-.0393.1007-.0786.1499-.1203.0516-.0418.1031-.0835.1523-.1228l.0122-.0099c.0958-.0786.1892-.1596.285-.2407.0294-.0245.0565-.0491.0859-.0761l-2.1197-2.1222c-2.3211 1.9797-5.2661 3.0629-8.3364 3.0629-7.0935 0-12.86562-5.7721-12.86562-12.8656 0-3.4584 1.35338-6.7031 3.80712-9.1372 1.152-1.1421 2.5324-2.0681 4.0233-2.7043l-2.2499-2.2499c-1.4344.7443-2.7436 1.6997-3.89555 2.8443-3.02115 2.9991-4.684 6.9904-4.684 11.2446 0 4.237 1.65057 8.2185 4.6447 11.2151Z" fill="#fff"/><path d="M39.0195 21.0252c0-5.6174-2.1861-10.8958-6.1578-14.86747C28.89 2.18603 23.6092 0 17.9918 0 12.3572 0 7.0641 2.19831 3.0924 6.19457 1.95762 7.3318.957945 8.59675.113007 9.95504L2.29658 12.1386c.61406-1.0807 1.33864-2.0976 2.16393-3.03341l-.02211-.02211.76634-.76879C8.61397 4.88296 13.158 2.99167 17.9943 2.99167c4.8166 0 9.3459 1.87655 12.7526 5.28332 3.4068 3.40681 5.2833 7.93361 5.2833 12.75271 0 .3561-.0098.7196-.0319 1.0758-.0024.0466-.0049.0982-.0098.1498-.0025.0369-.0049.0737-.0074.1105v.0172c-.0049.0737-.0123.1499-.0196.2235-.0049.0615-.0099.1278-.0172.1941-.0099.0933-.0197.1916-.0295.2898-.0074.0565-.0123.1179-.0221.1818-.0098.0786-.0197.167-.0319.2579-.0074.0491-.0148.0982-.0221.1449-.0099.0835-.0246.1719-.0393.2628-.0074.0467-.0172.1007-.0246.1523-.0074.0442-.0147.0884-.0246.1326-.0098.0565-.0221.1228-.0344.1867-.0098.0565-.0221.1179-.0368.1793-.0123.0688-.027.14-.0442.2137-.1032.4912-.2309.9874-.3758 1.4664-.0197.0663-.0393.1351-.0639.2038-.0172.0541-.0344.1081-.0516.1646-.1031.3168-.2161.6337-.3365.9407-.0171.0418-.0343.086-.0515.1302-.0197.0491-.0393.0983-.059.1474-.0245.0589-.0516.1252-.0786.1916-.0196.0491-.0442.1056-.0688.1596l-.0098.0246c-.0344.0737-.0663.1498-.1007.2235-.0245.0565-.0491.1105-.0761.1646-.4544.9824-1.0071 1.9305-1.6383 2.8197l-.1007.14c-.0737.1007-.1449.1965-.2162.2898-.0344.0467-.0712.0934-.108.14-.0786.1032-.1597.2039-.2383.3022-.0467.0564-.0933.1179-.1425.1743-.0417.0516-.0859.1057-.1326.1597l-.0098.0098c-.0491.0565-.0983.1155-.1499.172-.0564.0638-.1129.1301-.1694.194l2.1172 2.1197c3.5149-3.8636 5.4455-8.8596 5.4455-14.1134Z" fill="#fff"/><path d="m23.027 32.8692 2.2499 2.2499c1.4344-.7443 2.7436-1.6997 3.8955-2.8443 3.0187-2.9991 4.6791-6.9929 4.6791-11.247 0-4.2346-1.6505-8.2185-4.6447-11.21267-2.9966-2.99658-6.9781-4.64716-11.215-4.64716-.1327 0-.2653.00245-.398.00491-.0663 0-.1301.00246-.1965.00491H17.39c-.0983.00492-.1941.00983-.2923.01474-.0786.00491-.1548.00983-.2334.01474-.0393.00245-.0736.00491-.1056.00737l-.054.00491c-.0688.00491-.1425.01228-.2137.01965-.0639.00737-.1228.01228-.1842.01965-.0442.00491-.0835.00982-.1204.01228l-.0614.00737c-.0073 0-.0147.00245-.0196.00245-.0516.00492-.1032.01229-.1548.01965-.1965.02457-.388.05404-.5772.08352-.054.00982-.1056.01719-.1572.02701l-.0172.00246c-.0417.00737-.081.01474-.1203.02211l-.027.00491c-.0516.00982-.1032.01965-.1572.02947-.1474.02702-.2874.0565-.425.08843-.0933.01965-.1866.04421-.28.06631l-.0123.00246c-.0245.00491-.0466.00983-.0712.01719-.0688.0172-.1302.03439-.194.04913-.0541.01474-.1032.02702-.1548.04175-.0442.01229-.0835.02211-.1228.03439-.0368.00983-.0663.01965-.0933.02702l-.0221.00737c-.0393.00982-.0786.0221-.1179.03439-.0663.01965-.1228.03684-.1793.05649-.0467.01474-.086.02702-.1302.0393-.1326.04421-.2653.08842-.3954.13509-.0369.01228-.0688.02456-.1032.03684l-.0295.00983c-.0442.01719-.0835.02947-.1228.04667-.0688.02456-.1277.04666-.1867.07123-.0491.01965-.0908.03684-.1351.05403-.081.03193-.1547.06141-.2284.09334l-.221.09334c-.0688.02947-.1351.05895-.2015.08842-.0368.01719-.0712.03193-.1056.04667l-.0319.01474c-.054.02456-.1081.05158-.1621.07614-.3341.15965-.6632.32913-.98.51089-.0369.01965-.0664.03684-.1007.05649-.0688.0393-.14005.08106-.20637.12036l-.22843.14c-.04667.02948-.09579.06141-.14492.09088-.16211.10316-.32667.21124-.50352.33405-.04667.03193-.09088.06386-.13509.09333l-.02948.01965c-.04175.02948-.0786.0565-.11544.08352l-.01474.00982c-.02456.01965-.04912.03684-.07614.05649l-.00982.00737c-.04667.03193-.09088.06632-.13509.10071-.05159.03684-.09825.07614-.14738.11298-.03439.02702-.06386.04913-.09088.07123l-.03438.02702c-.04913.0393-.10071.0786-.14983.12036-.0565.04421-.11053.09088-.16457.13509-.09579.0786-.18913.1572-.28492.24071-.02948.02456-.05649.04912-.08597.07614L9.6529 11.2299c2.3211-1.9797 5.2661-3.06535 8.3364-3.06535 7.0935 0 12.8656 5.77215 12.8656 12.86565 0 3.4584-1.3533 6.703-3.8071 9.1371-1.1495 1.1373-2.5299 2.0657-4.0208 2.7019Z" fill="#C8A35F"/></g><g clip-path="url(#b)" fill="#fff"><path d="m57.9196 30.2354-.6137 1.8542h1.2405l-.6137-1.8542h-.0131ZM58.8076 19.7498c-.209.9337-.6072 1.6453-1.1818 2.135-.5876.4701-1.2992.7117-2.148.7117-.6921 0-1.3319-.1763-1.9391-.5224-.5876-.346-1.025-.8814-1.2993-1.593-.3003-.7117-.4374-1.5605-.4374-2.5137 0-.7443.124-1.4755.3656-2.1676.2416-.6986.6594-1.2536 1.234-1.6649.5876-.3983 1.3319-.6072 2.2003-.6072.7638 0 1.3841.1763 1.8868.555.5028.3656.8814.9532 1.1426 1.7693l.0326.0849 1.7367-.3983-.0326-.1044c-.3265-1.0773-.901-1.9261-1.7171-2.5333-.8161-.5876-1.8216-.8814-3.0164-.8814-1.0381 0-2.0109.2285-2.8989.6921-.8618.4831-1.5539 1.1752-2.0239 2.0827-.4701.901-.7117 1.9718-.7117 3.1731 0 1.1099.2089 2.1676.6268 3.1209.4178.9728 1.0381 1.7367 1.8542 2.2394.7965.5223 1.8542.7835 3.1404.7835 1.234 0 2.2917-.3461 3.1535-1.0055.8684-.6594 1.456-1.6453 1.789-2.9119l.0326-.1045-1.7498-.4309-.0391.0914ZM74.6925 12.7835C73.8046 12.2612 72.7991 12 71.7088 12c-1.6845 0-3.0686.555-4.1263 1.6453-1.0577 1.0903-1.5931 2.6377-1.5931 4.5572 0 1.0251.2286 1.9914.6921 2.9119.4505.9206 1.1295 1.6453 2.0109 2.1872.8814.5354 1.8934.7966 2.9968.7966 1.0381 0 2.0109-.2416 2.8924-.7313.901-.4701 1.593-1.1948 2.0958-2.1349.4831-.9206.7312-1.9914.7312-3.1731 0-1.1622-.2416-2.2003-.6921-3.1209-.4635-.9075-1.1425-1.6387-2.024-2.1545Zm-.1893 8.6313c-.7312.7769-1.6845 1.1817-2.8074 1.1817-1.11 0-2.0436-.3983-2.7944-1.1621-.7313-.7835-1.11-1.8543-1.11-3.2058 0-1.6844.3983-2.9119 1.1622-3.6235.7639-.7117 1.6975-1.0773 2.7552-1.0773.7639 0 1.4364.1893 2.0436.5549.5876.3657 1.0577.901 1.3711 1.58.3133.6791.47 1.4887.47 2.4092 0 1.4364-.3656 2.5659-1.0903 3.3429ZM92.5688 12.5027l-2.7944 7.9588c-.2285.6398-.3982 1.1425-.5223 1.5408l-.4701-1.3841-2.7878-8.22h-.1894v4.2503l2.5855 7.4561h1.5408l2.6377-7.443v-4.1589ZM85.1781 12.3982h-1.6976v11.7064h1.6976V12.3982ZM94.8736 12.3982h-1.6845v11.7064h1.6845V12.3982ZM102.695 12.3982h-1.75v11.7064h1.75V12.3982ZM109.733 14.2198c-.261-.4832-.574-.8814-.985-1.1426-.399-.2807-.901-.4701-1.476-.555-.418-.0848-1.025-.124-1.802-.124h-2.148v1.5604h2.272c.692 0 1.162.0327 1.423.1045.379.1044.693.3134.921.6398.242.3265.346.7117.346 1.1818 0 .6267-.189 1.1099-.588 1.4559-.398.3461-1.09.5223-2.063.5223h-2.304v1.58h2.291c1.665 0 2.86-.3656 3.5-1.0576.659-.6921.986-1.5409.986-2.5463-.007-.5942-.131-1.1361-.373-1.6192ZM120.741 12.3983l-4.576 11.7064h1.854l.522-1.371h-.02l1.319-3.5518.281-.7312.973-2.5855h.019c.209-.5746.379-1.1622.523-1.7367.176.5549.418 1.234.711 1.9913l1.182 3.049h-2.997l-.535 1.4364h4.094l1.371 3.4865h1.991l-4.89-11.7064h-1.822v.013ZM134.968 12.3982h-1.632v11.7064h1.632V12.3982ZM141.066 21.1927l-.033-.0522v2.9641h1.731V12.3982h-1.698v8.7945ZM135.588 16.1458l4.819 7.0709v-2.9968l-4.819-7.0578v2.9837ZM157.917 12.3982l-2.304 3.4342c-.451.679-.849 1.3189-1.195 1.8738v-.0195l-.973 1.4755v4.9424h1.769v-4.9424l4.766-6.764h-2.063ZM154.052 17.0795l-.725-1.1622-2.343-3.5191h-2.149l4.231 6.209.986-1.5277ZM50 29.9415h1.1622v3.6693h.6463v-3.6693h1.1622v-.5746H50v.5746Z"/><path d="m57.6585 29.3669-1.5409 4.2439h.6791l.3264-.9467h1.6127l.3264.9467h.679l-1.5408-4.2439h-.5419Zm-.3526 2.7226.6137-1.8542h.0131l.6137 1.8542h-1.2405ZM65.0362 31.8806h.8618v.222c-.0065.2677-.0849.4832-.2481.6464-.1632.1698-.3721.2546-.6202.2546-.1502 0-.2808-.0326-.3918-.0979-.111-.0522-.2024-.1241-.2677-.2155-.0848-.0914-.1371-.2089-.1632-.3591-.0326-.1501-.0457-.4309-.0457-.8487 0-.4179.0131-.6986.0457-.8553.0261-.1437.0849-.2612.1632-.3526.0653-.0849.1567-.1632.2677-.2154.111-.0588.2416-.0849.3918-.0914.2024.0065.3787.0652.5223.1762.1371.1176.235.2677.2873.4375h.679c-.0653-.3526-.2285-.6529-.4897-.8945-.2612-.2416-.5941-.3591-.9989-.3656-.333.0065-.6138.0849-.8357.2416-.2285.1501-.3918.3264-.4962.5223-.0653.1044-.111.235-.1437.4048-.0261.1697-.0457.4962-.0457.9924 0 .4831.0131.8161.0457.9859.0131.0914.0327.1697.0588.2285.0261.0587.0522.1175.0849.1828.1044.1958.2677.3656.4962.5158.2219.1567.5027.235.8357.2415.4309-.0065.79-.1567 1.0773-.4374.2807-.2873.4309-.6398.4374-1.0708v-.8618h-1.5082v.6137ZM71.5129 29.3669h-.6398v4.2439h2.7095v-.6072h-2.0697v-3.6367ZM78.4075 29.3669h-.6398v4.2439h.6398v-4.2439ZM85.4131 32.3833h-.0065l-1.9261-3.0164h-.6006v4.2439h.6398v-3.0164h.0131l1.9195 3.0164h.6072v-4.2439h-.6464v3.0164ZM90.5318 33.6108h2.7095v-.6072h-2.0631v-1.2471h1.7628v-.568h-1.7628v-1.2144h2.0631v-.6072h-2.7095v4.2439ZM103.805 31.8806h.862v.222c-.007.2677-.085.4832-.248.6464-.163.1698-.372.2546-.62.2546-.151 0-.281-.0326-.392-.0979-.111-.0522-.202-.1241-.268-.2155-.085-.0914-.137-.2089-.163-.3591-.033-.1501-.046-.4309-.046-.8487 0-.4179.013-.6986.046-.8553.026-.1437.085-.2612.163-.3526.066-.0849.157-.1632.268-.2154.111-.0588.241-.0849.392-.0914.209.0065.378.0652.522.1762.137.1176.235.2677.287.4375h.679c-.065-.3526-.228-.6529-.489-.8945-.255-.2416-.595-.3591-.999-.3656-.333.0065-.614.0849-.836.2416-.229.1501-.392.3264-.496.5223-.066.1044-.111.235-.144.4048-.026.1697-.046.4962-.046.9924 0 .4831.013.8161.046.9859.013.0914.033.1697.059.2285.026.0587.052.1175.085.1828.104.1958.267.3656.496.5158.222.1567.503.235.836.2415.431-.0065.79-.1567 1.077-.4374.281-.2873.431-.6398.437-1.0708v-.8618h-1.508v.6137ZM112.339 30.0918c-.098-.1959-.262-.3722-.484-.5223-.228-.1567-.509-.2351-.842-.2416-.333.0065-.614.0849-.836.2416-.228.1501-.391.3264-.496.5223-.065.1044-.111.235-.143.4048-.026.1697-.046.4962-.046.9924 0 .4831.013.8161.046.9858.013.0914.032.1698.058.2286.027.0587.053.1175.085.1828.105.1958.268.3656.496.5158.222.1566.503.235.836.2415.34-.0065.62-.0914.842-.2415.222-.1502.386-.32.484-.5158.071-.1045.124-.2416.15-.4114.026-.1697.039-.4962.039-.9858 0-.4897-.013-.8227-.039-.9924-.026-.1633-.079-.3004-.15-.4048Zm-.503 2.2459c-.033.1502-.092.2677-.17.3591-.065.0849-.15.1567-.255.2155-.111.0653-.248.0979-.398.0979-.15 0-.281-.0326-.392-.0979-.111-.0522-.202-.1241-.267-.2155-.085-.0914-.137-.2089-.163-.3591-.033-.1501-.046-.4309-.046-.8487 0-.4179.013-.6986.046-.8553.026-.1437.084-.2612.163-.3526.065-.0849.156-.1632.267-.2154.111-.0588.242-.0849.392-.0915.15.0066.287.0327.398.0915.105.0587.19.1305.255.2154.085.0914.144.2089.17.3526.026.1501.046.4374.046.8553 0 .4178-.014.6986-.046.8487ZM116.85 33.6108h2.71v-.6072h-2.064v-1.2471h1.763v-.568h-1.763v-1.2144h2.064v-.6072h-2.71v4.2439ZM125.325 31.1887c-.203-.0261-.359-.0457-.477-.0653-.209-.0392-.359-.111-.457-.2089-.098-.098-.144-.2089-.144-.333.007-.2024.072-.3591.216-.457.13-.098.3-.1502.496-.1502.385.0065.731.1175 1.051.3265l.359-.5289c-.391-.2807-.848-.4309-1.377-.4374-.438.0065-.777.1175-1.019.346-.248.2285-.372.5289-.372.8945 0 .3068.098.568.294.7835.189.2089.47.346.836.4047.202.0262.391.0523.561.0784.372.0653.555.2546.555.568-.007.3852-.287.5811-.836.5876-.463-.0065-.868-.1436-1.208-.4244l-.424.4832c.451.3852.992.5811 1.619.5811.973-.0131 1.469-.4244 1.489-1.234 0-.3003-.092-.5615-.281-.79-.189-.222-.483-.3656-.881-.4244ZM138.069 31.1885h-1.678v-1.8216h-.646v4.2439h.646v-1.8543h1.678v1.8543h.647v-4.2439h-.647v1.8216ZM143.188 33.6108h2.709v-.6072h-2.069v-1.2471h1.763v-.568h-1.763v-1.2144h2.069v-.6072h-2.709v4.2439ZM153.021 30.5489c-.014-.3918-.151-.6921-.425-.9076-.222-.1893-.509-.2807-.862-.2807h-1.658v4.2438h.646v-1.815h.823l.875 1.815h.764l-.986-1.8803c.542-.2024.816-.5942.823-1.1752Zm-2.299.679v-1.2862h1.006c.202 0 .365.0457.47.1306.137.0979.209.2611.215.4831 0 .1828-.058.3395-.176.4636-.117.1371-.3.2089-.542.2089h-.973ZM157.29 33.6108H160v-.6072h-2.07v-1.2471h1.763v-.568h-1.763v-1.2144H160v-.6072h-2.71v4.2439Z"/></g><defs><clipPath id="a"><path fill="#fff" d="M0 0h39.0194v46H0z"/></clipPath><clipPath id="b"><path fill="#fff" transform="translate(50 12)" d="M0 0h110v21.6435H0z"/></clipPath></defs></svg>